<?xml version="1.0" encoding="UTF-8"?>
<svg xmlns="http://www.w3.org/2000/svg" version="1.2">
	<defs>
		<symbol id="surface1">
			<symbol id="full-logo" viewBox="285 265 245 127">
				<g id="bahamas">
					<path style=" stroke:none;fill-rule:nonzero;fill:rgb(32.548523%,32.548523%,33.332825%);fill-opacity:1;" d="M 375.535156 375.59375 C 375.535156 375.398438 375.699219 375.230469 375.898438 375.230469 L 379.578125 375.230469 C 380.683594 375.230469 381.578125 375.550781 382.125 376.097656 C 382.527344 376.503906 382.753906 377.023438 382.753906 377.636719 L 382.753906 377.664062 C 382.753906 378.992188 381.882812 379.664062 381.085938 379.988281 C 382.261719 380.292969 383.296875 380.96875 383.296875 382.324219 L 383.296875 382.351562 C 383.296875 383.988281 381.898438 385.023438 379.789062 385.023438 L 375.898438 385.023438 C 375.699219 385.023438 375.535156 384.855469 375.535156 384.660156 Z M 379.492188 379.75 C 380.960938 379.75 382.011719 379.035156 382.011719 377.734375 L 382.011719 377.707031 C 382.011719 376.628906 381.128906 375.902344 379.5625 375.902344 L 376.261719 375.902344 L 376.261719 379.75 Z M 379.816406 384.351562 C 381.492188 384.351562 382.558594 383.582031 382.558594 382.351562 L 382.558594 382.324219 C 382.558594 381.121094 381.507812 380.421875 379.578125 380.421875 L 376.261719 380.421875 L 376.261719 384.351562 Z M 379.816406 384.351562 " />
					<path style=" stroke:none;fill-rule:nonzero;fill:rgb(32.548523%,32.548523%,33.332825%);fill-opacity:1;" d="M 384.746094 382.953125 L 384.746094 382.925781 C 384.746094 381.441406 386.019531 380.601562 387.867188 380.601562 C 388.859375 380.601562 389.546875 380.730469 390.230469 380.910156 L 390.230469 380.601562 C 390.230469 379.160156 389.351562 378.421875 387.882812 378.421875 C 387.097656 378.421875 386.441406 378.617188 385.851562 378.894531 C 385.796875 378.921875 385.742188 378.9375 385.699219 378.9375 C 385.53125 378.9375 385.378906 378.785156 385.378906 378.617188 C 385.378906 378.449219 385.503906 378.335938 385.574219 378.308594 C 386.300781 377.988281 387.011719 377.777344 387.925781 377.777344 C 388.890625 377.777344 389.660156 378.042969 390.175781 378.5625 C 390.652344 379.035156 390.902344 379.695312 390.902344 380.574219 L 390.902344 384.730469 C 390.902344 384.9375 390.761719 385.082031 390.566406 385.082031 C 390.371094 385.082031 390.230469 384.9375 390.230469 384.730469 L 390.230469 383.835938 C 389.742188 384.519531 388.859375 385.191406 387.503906 385.191406 C 386.175781 385.191406 384.746094 384.4375 384.746094 382.953125 M 390.246094 382.351562 L 390.246094 381.539062 C 389.644531 381.386719 388.847656 381.21875 387.824219 381.21875 C 386.316406 381.21875 385.476562 381.890625 385.476562 382.882812 L 385.476562 382.910156 C 385.476562 383.945312 386.453125 384.550781 387.546875 384.550781 C 389 384.550781 390.246094 383.652344 390.246094 382.351562 " />
					<path style=" stroke:none;fill-rule:nonzero;fill:rgb(32.548523%,32.548523%,33.332825%);fill-opacity:1;" d="M 393.222656 375.105469 C 393.222656 374.910156 393.363281 374.753906 393.558594 374.753906 C 393.753906 374.753906 393.90625 374.910156 393.90625 375.105469 L 393.90625 379.21875 C 394.382812 378.378906 395.179688 377.722656 396.480469 377.722656 C 398.285156 377.722656 399.335938 378.953125 399.335938 380.660156 L 399.335938 384.730469 C 399.335938 384.941406 399.195312 385.078125 399 385.078125 C 398.804688 385.078125 398.648438 384.941406 398.648438 384.730469 L 398.648438 380.785156 C 398.648438 379.316406 397.824219 378.351562 396.382812 378.351562 C 394.984375 378.351562 393.90625 379.414062 393.90625 380.898438 L 393.90625 384.730469 C 393.90625 384.941406 393.765625 385.078125 393.574219 385.078125 C 393.375 385.078125 393.222656 384.941406 393.222656 384.730469 Z M 393.222656 375.105469 " />
					<path style=" stroke:none;fill-rule:nonzero;fill:rgb(32.548523%,32.548523%,33.332825%);fill-opacity:1;" d="M 401.066406 382.953125 L 401.066406 382.925781 C 401.066406 381.441406 402.339844 380.601562 404.1875 380.601562 C 405.179688 380.601562 405.863281 380.730469 406.550781 380.910156 L 406.550781 380.601562 C 406.550781 379.160156 405.667969 378.421875 404.199219 378.421875 C 403.417969 378.421875 402.757812 378.617188 402.171875 378.894531 C 402.117188 378.921875 402.058594 378.9375 402.015625 378.9375 C 401.847656 378.9375 401.695312 378.785156 401.695312 378.617188 C 401.695312 378.449219 401.820312 378.335938 401.890625 378.308594 C 402.617188 377.988281 403.332031 377.777344 404.242188 377.777344 C 405.207031 377.777344 405.976562 378.042969 406.492188 378.5625 C 406.96875 379.035156 407.222656 379.695312 407.222656 380.574219 L 407.222656 384.730469 C 407.222656 384.9375 407.082031 385.082031 406.886719 385.082031 C 406.691406 385.082031 406.550781 384.9375 406.550781 384.730469 L 406.550781 383.835938 C 406.058594 384.519531 405.179688 385.191406 403.820312 385.191406 C 402.492188 385.191406 401.066406 384.4375 401.066406 382.953125 M 406.5625 382.351562 L 406.5625 381.539062 C 405.960938 381.386719 405.164062 381.21875 404.144531 381.21875 C 402.632812 381.21875 401.792969 381.890625 401.792969 382.882812 L 401.792969 382.910156 C 401.792969 383.945312 402.773438 384.550781 403.863281 384.550781 C 405.320312 384.550781 406.5625 383.652344 406.5625 382.351562 " />
					<path style=" stroke:none;fill-rule:nonzero;fill:rgb(32.548523%,32.548523%,33.332825%);fill-opacity:1;" d="M 409.539062 378.183594 C 409.539062 377.988281 409.679688 377.832031 409.875 377.832031 C 410.070312 377.832031 410.226562 377.972656 410.226562 378.183594 L 410.226562 379.160156 C 410.683594 378.421875 411.328125 377.722656 412.601562 377.722656 C 413.847656 377.722656 414.617188 378.433594 415.011719 379.261719 C 415.472656 378.464844 416.242188 377.722656 417.582031 377.722656 C 419.277344 377.722656 420.328125 378.910156 420.328125 380.699219 L 420.328125 384.730469 C 420.328125 384.941406 420.1875 385.078125 419.988281 385.078125 C 419.792969 385.078125 419.640625 384.941406 419.640625 384.730469 L 419.640625 380.785156 C 419.640625 379.246094 418.84375 378.351562 417.527344 378.351562 C 416.324219 378.351562 415.277344 379.273438 415.277344 380.867188 L 415.277344 384.730469 C 415.277344 384.941406 415.136719 385.078125 414.9375 385.078125 C 414.742188 385.078125 414.589844 384.941406 414.589844 384.730469 L 414.589844 380.742188 C 414.589844 379.261719 413.777344 378.351562 412.507812 378.351562 C 411.230469 378.351562 410.226562 379.46875 410.226562 380.910156 L 410.226562 384.730469 C 410.226562 384.941406 410.085938 385.078125 409.890625 385.078125 C 409.691406 385.078125 409.539062 384.941406 409.539062 384.730469 Z M 409.539062 378.183594 " />
					<path style=" stroke:none;fill-rule:nonzero;fill:rgb(32.548523%,32.548523%,33.332825%);fill-opacity:1;" d="M 422.109375 382.953125 L 422.109375 382.925781 C 422.109375 381.441406 423.382812 380.601562 425.230469 380.601562 C 426.222656 380.601562 426.910156 380.730469 427.59375 380.910156 L 427.59375 380.601562 C 427.59375 379.160156 426.710938 378.421875 425.242188 378.421875 C 424.460938 378.421875 423.800781 378.617188 423.214844 378.894531 C 423.160156 378.921875 423.101562 378.9375 423.0625 378.9375 C 422.894531 378.9375 422.738281 378.785156 422.738281 378.617188 C 422.738281 378.449219 422.863281 378.335938 422.933594 378.308594 C 423.664062 377.988281 424.375 377.777344 425.285156 377.777344 C 426.25 377.777344 427.019531 378.042969 427.539062 378.5625 C 428.011719 379.035156 428.265625 379.695312 428.265625 380.574219 L 428.265625 384.730469 C 428.265625 384.9375 428.125 385.082031 427.929688 385.082031 C 427.734375 385.082031 427.59375 384.9375 427.59375 384.730469 L 427.59375 383.835938 C 427.105469 384.519531 426.222656 385.191406 424.867188 385.191406 C 423.535156 385.191406 422.109375 384.4375 422.109375 382.953125 M 427.609375 382.351562 L 427.609375 381.539062 C 427.003906 381.386719 426.207031 381.21875 425.1875 381.21875 C 423.675781 381.21875 422.835938 381.890625 422.835938 382.882812 L 422.835938 382.910156 C 422.835938 383.945312 423.816406 384.550781 424.90625 384.550781 C 426.363281 384.550781 427.609375 383.652344 427.609375 382.351562 " />
					<path class="bahamas s" style=" stroke:none;fill-rule:nonzero;fill:rgb(32.548523%,32.548523%,33.332825%);fill-opacity:1;" d="M 430.121094 384.242188 C 430.066406 384.199219 429.996094 384.085938 429.996094 383.972656 C 429.996094 383.792969 430.148438 383.636719 430.332031 383.636719 C 430.414062 383.636719 430.5 383.667969 430.554688 383.707031 C 431.296875 384.242188 432.082031 384.519531 432.933594 384.519531 C 433.898438 384.519531 434.65625 383.988281 434.65625 383.164062 L 434.65625 383.136719 C 434.65625 382.296875 433.757812 381.988281 432.765625 381.707031 C 431.605469 381.371094 430.316406 381.023438 430.316406 379.75 L 430.316406 379.722656 C 430.316406 378.574219 431.28125 377.75 432.667969 377.75 C 433.4375 377.75 434.292969 378 434.976562 378.394531 C 435.058594 378.449219 435.15625 378.546875 435.15625 378.699219 C 435.15625 378.882812 435.003906 379.035156 434.824219 379.035156 C 434.738281 379.035156 434.667969 379.007812 434.628906 378.980469 C 434.011719 378.617188 433.328125 378.394531 432.640625 378.394531 C 431.660156 378.394531 431.015625 378.921875 431.015625 379.636719 L 431.015625 379.664062 C 431.015625 380.460938 431.980469 380.757812 433.003906 381.050781 C 434.152344 381.371094 435.355469 381.792969 435.355469 383.050781 L 435.355469 383.078125 C 435.355469 384.351562 434.261719 385.164062 432.890625 385.164062 C 431.925781 385.164062 430.847656 384.785156 430.121094 384.242188 " />
				</g>
				<g id="sivananda-ashram">
					<path style=" stroke:none;fill-rule:nonzero;fill:rgb(32.548523%,32.548523%,33.332825%);fill-opacity:1;" d="M 343.253906 340.632812 C 343.183594 340.578125 343.113281 340.476562 343.113281 340.355469 C 343.113281 340.15625 343.28125 339.988281 343.480469 339.988281 C 343.574219 339.988281 343.660156 340.03125 343.714844 340.070312 C 344.695312 340.953125 345.675781 341.347656 347.019531 341.347656 C 348.484375 341.347656 349.492188 340.519531 349.492188 339.402344 L 349.492188 339.375 C 349.492188 338.339844 348.949219 337.738281 346.722656 337.289062 C 344.375 336.8125 343.421875 336.015625 343.421875 334.53125 L 343.421875 334.503906 C 343.421875 333.050781 344.75 331.929688 346.570312 331.929688 C 347.886719 331.929688 348.792969 332.265625 349.6875 332.9375 C 349.761719 332.992188 349.84375 333.089844 349.84375 333.230469 C 349.84375 333.425781 349.675781 333.597656 349.480469 333.597656 C 349.394531 333.597656 349.3125 333.566406 349.242188 333.511719 C 348.390625 332.855469 347.535156 332.585938 346.542969 332.585938 C 345.101562 332.585938 344.148438 333.414062 344.148438 334.433594 L 344.148438 334.460938 C 344.148438 335.496094 344.679688 336.128906 347.003906 336.601562 C 349.269531 337.066406 350.222656 337.875 350.222656 339.304688 L 350.222656 339.332031 C 350.222656 340.910156 348.863281 342.003906 346.976562 342.003906 C 345.507812 342.003906 344.359375 341.542969 343.253906 340.632812 " />
					<path style=" stroke:none;fill-rule:nonzero;fill:rgb(32.548523%,32.548523%,33.332825%);fill-opacity:1;" d="M 352.328125 332.28125 C 352.328125 332.042969 352.511719 331.859375 352.75 331.859375 C 352.984375 331.859375 353.183594 332.042969 353.183594 332.28125 L 353.183594 332.519531 C 353.183594 332.753906 352.984375 332.9375 352.75 332.9375 C 352.511719 332.9375 352.328125 332.753906 352.328125 332.519531 Z M 352.414062 335.023438 C 352.414062 334.828125 352.554688 334.671875 352.75 334.671875 C 352.945312 334.671875 353.097656 334.8125 353.097656 335.023438 L 353.097656 341.570312 C 353.097656 341.78125 352.960938 341.917969 352.761719 341.917969 C 352.566406 341.917969 352.414062 341.78125 352.414062 341.570312 Z M 352.414062 335.023438 " />
					<path style=" stroke:none;fill-rule:nonzero;fill:rgb(32.548523%,32.548523%,33.332825%);fill-opacity:1;" d="M 358.441406 341.960938 L 358.414062 341.960938 C 358.21875 341.960938 358.105469 341.851562 358.019531 341.667969 L 355.152344 335.234375 C 355.125 335.160156 355.097656 335.09375 355.097656 335.023438 C 355.097656 334.828125 355.25 334.671875 355.460938 334.671875 C 355.671875 334.671875 355.753906 334.796875 355.824219 334.953125 L 358.425781 341.09375 L 361.070312 334.925781 C 361.125 334.785156 361.226562 334.671875 361.40625 334.671875 C 361.601562 334.671875 361.757812 334.828125 361.757812 335.023438 C 361.757812 335.09375 361.742188 335.132812 361.714844 335.203125 L 358.832031 341.667969 C 358.75 341.851562 358.636719 341.960938 358.441406 341.960938 " />
					<path style=" stroke:none;fill-rule:nonzero;fill:rgb(32.548523%,32.548523%,33.332825%);fill-opacity:1;" d="M 362.71875 339.792969 L 362.71875 339.765625 C 362.71875 338.28125 363.992188 337.441406 365.839844 337.441406 C 366.832031 337.441406 367.515625 337.566406 368.203125 337.75 L 368.203125 337.441406 C 368.203125 336 367.320312 335.261719 365.851562 335.261719 C 365.070312 335.261719 364.410156 335.457031 363.824219 335.734375 C 363.765625 335.761719 363.710938 335.777344 363.667969 335.777344 C 363.5 335.777344 363.347656 335.625 363.347656 335.457031 C 363.347656 335.289062 363.472656 335.175781 363.542969 335.148438 C 364.269531 334.828125 364.984375 334.617188 365.894531 334.617188 C 366.859375 334.617188 367.628906 334.882812 368.144531 335.402344 C 368.621094 335.875 368.875 336.535156 368.875 337.414062 L 368.875 341.570312 C 368.875 341.777344 368.734375 341.917969 368.539062 341.917969 C 368.34375 341.917969 368.203125 341.777344 368.203125 341.570312 L 368.203125 340.675781 C 367.710938 341.359375 366.832031 342.03125 365.472656 342.03125 C 364.144531 342.03125 362.71875 341.277344 362.71875 339.792969 M 368.214844 339.191406 L 368.214844 338.378906 C 367.613281 338.226562 366.816406 338.058594 365.796875 338.058594 C 364.285156 338.058594 363.445312 338.730469 363.445312 339.722656 L 363.445312 339.75 C 363.445312 340.785156 364.425781 341.386719 365.515625 341.386719 C 366.972656 341.386719 368.214844 340.492188 368.214844 339.191406 " />
					<path style=" stroke:none;fill-rule:nonzero;fill:rgb(32.548523%,32.548523%,33.332825%);fill-opacity:1;" d="M 371.191406 335.023438 C 371.191406 334.828125 371.332031 334.671875 371.527344 334.671875 C 371.722656 334.671875 371.878906 334.8125 371.878906 335.023438 L 371.878906 336.058594 C 372.351562 335.21875 373.152344 334.558594 374.453125 334.558594 C 376.257812 334.558594 377.304688 335.792969 377.304688 337.496094 L 377.304688 341.570312 C 377.304688 341.78125 377.164062 341.917969 376.96875 341.917969 C 376.773438 341.917969 376.621094 341.78125 376.621094 341.570312 L 376.621094 337.625 C 376.621094 336.15625 375.792969 335.191406 374.351562 335.191406 C 372.953125 335.191406 371.878906 336.253906 371.878906 337.738281 L 371.878906 341.570312 C 371.878906 341.78125 371.738281 341.917969 371.542969 341.917969 C 371.34375 341.917969 371.191406 341.78125 371.191406 341.570312 Z M 371.191406 335.023438 " />
					<path style=" stroke:none;fill-rule:nonzero;fill:rgb(32.548523%,32.548523%,33.332825%);fill-opacity:1;" d="M 379.035156 339.792969 L 379.035156 339.765625 C 379.035156 338.28125 380.308594 337.441406 382.15625 337.441406 C 383.148438 337.441406 383.835938 337.566406 384.519531 337.75 L 384.519531 337.441406 C 384.519531 336 383.636719 335.261719 382.171875 335.261719 C 381.386719 335.261719 380.726562 335.457031 380.140625 335.734375 C 380.085938 335.761719 380.03125 335.777344 379.988281 335.777344 C 379.820312 335.777344 379.664062 335.625 379.664062 335.457031 C 379.664062 335.289062 379.792969 335.175781 379.863281 335.148438 C 380.589844 334.828125 381.300781 334.617188 382.210938 334.617188 C 383.175781 334.617188 383.945312 334.882812 384.464844 335.402344 C 384.941406 335.875 385.191406 336.535156 385.191406 337.414062 L 385.191406 341.570312 C 385.191406 341.777344 385.050781 341.917969 384.855469 341.917969 C 384.660156 341.917969 384.519531 341.777344 384.519531 341.570312 L 384.519531 340.675781 C 384.03125 341.359375 383.148438 342.03125 381.792969 342.03125 C 380.464844 342.03125 379.035156 341.277344 379.035156 339.792969 M 384.535156 339.191406 L 384.535156 338.378906 C 383.933594 338.226562 383.136719 338.058594 382.113281 338.058594 C 380.601562 338.058594 379.765625 338.730469 379.765625 339.722656 L 379.765625 339.75 C 379.765625 340.785156 380.742188 341.386719 381.835938 341.386719 C 383.289062 341.386719 384.535156 340.492188 384.535156 339.191406 " />
					<path style=" stroke:none;fill-rule:nonzero;fill:rgb(32.548523%,32.548523%,33.332825%);fill-opacity:1;" d="M 387.507812 335.023438 C 387.507812 334.828125 387.648438 334.671875 387.84375 334.671875 C 388.042969 334.671875 388.195312 334.8125 388.195312 335.023438 L 388.195312 336.058594 C 388.671875 335.21875 389.46875 334.558594 390.769531 334.558594 C 392.574219 334.558594 393.621094 335.792969 393.621094 337.496094 L 393.621094 341.570312 C 393.621094 341.78125 393.484375 341.917969 393.285156 341.917969 C 393.09375 341.917969 392.9375 341.78125 392.9375 341.570312 L 392.9375 337.625 C 392.9375 336.15625 392.113281 335.191406 390.671875 335.191406 C 389.273438 335.191406 388.195312 336.253906 388.195312 337.738281 L 388.195312 341.570312 C 388.195312 341.78125 388.054688 341.917969 387.859375 341.917969 C 387.664062 341.917969 387.507812 341.78125 387.507812 341.570312 Z M 387.507812 335.023438 " />
					<path style=" stroke:none;fill-rule:nonzero;fill:rgb(32.548523%,32.548523%,33.332825%);fill-opacity:1;" d="M 402.574219 341.570312 C 402.574219 341.78125 402.433594 341.921875 402.238281 341.921875 C 402.042969 341.921875 401.886719 341.78125 401.886719 341.570312 L 401.886719 340.269531 C 401.269531 341.207031 400.363281 342.03125 398.949219 342.03125 C 397.226562 342.03125 395.480469 340.644531 395.480469 338.324219 L 395.480469 338.296875 C 395.480469 335.972656 397.226562 334.5625 398.949219 334.5625 C 400.375 334.5625 401.300781 335.371094 401.886719 336.265625 L 401.886719 331.945312 C 401.886719 331.734375 402.027344 331.59375 402.222656 331.59375 C 402.417969 331.59375 402.574219 331.734375 402.574219 331.945312 Z M 396.222656 338.269531 L 396.222656 338.296875 C 396.222656 340.171875 397.523438 341.375 399.019531 341.375 C 400.503906 341.375 401.929688 340.128906 401.929688 338.308594 L 401.929688 338.28125 C 401.929688 336.449219 400.503906 335.21875 399.019531 335.21875 C 397.464844 335.21875 396.222656 336.351562 396.222656 338.269531 " />
					<path style=" stroke:none;fill-rule:nonzero;fill:rgb(32.548523%,32.548523%,33.332825%);fill-opacity:1;" d="M 404.441406 339.792969 L 404.441406 339.765625 C 404.441406 338.28125 405.714844 337.441406 407.5625 337.441406 C 408.554688 337.441406 409.242188 337.566406 409.925781 337.75 L 409.925781 337.441406 C 409.925781 336 409.042969 335.261719 407.578125 335.261719 C 406.792969 335.261719 406.132812 335.457031 405.546875 335.734375 C 405.492188 335.761719 405.4375 335.777344 405.394531 335.777344 C 405.226562 335.777344 405.070312 335.625 405.070312 335.457031 C 405.070312 335.289062 405.199219 335.175781 405.269531 335.148438 C 405.996094 334.828125 406.707031 334.617188 407.617188 334.617188 C 408.582031 334.617188 409.351562 334.882812 409.871094 335.402344 C 410.347656 335.875 410.597656 336.535156 410.597656 337.414062 L 410.597656 341.570312 C 410.597656 341.777344 410.457031 341.917969 410.261719 341.917969 C 410.066406 341.917969 409.925781 341.777344 409.925781 341.570312 L 409.925781 340.675781 C 409.4375 341.359375 408.554688 342.03125 407.199219 342.03125 C 405.871094 342.03125 404.441406 341.277344 404.441406 339.792969 M 409.941406 339.191406 L 409.941406 338.378906 C 409.339844 338.226562 408.542969 338.058594 407.519531 338.058594 C 406.007812 338.058594 405.171875 338.730469 405.171875 339.722656 L 405.171875 339.75 C 405.171875 340.785156 406.148438 341.386719 407.242188 341.386719 C 408.695312 341.386719 409.941406 340.492188 409.941406 339.191406 " />
					<path style=" stroke:none;fill-rule:nonzero;fill:rgb(32.548523%,32.548523%,33.332825%);fill-opacity:1;" d="M 416.507812 341.386719 L 420.691406 332.320312 C 420.789062 332.113281 420.929688 331.972656 421.183594 331.972656 L 421.210938 331.972656 C 421.460938 331.972656 421.601562 332.113281 421.699219 332.320312 L 425.867188 341.359375 C 425.910156 341.445312 425.925781 341.515625 425.925781 341.582031 C 425.925781 341.765625 425.769531 341.917969 425.574219 341.917969 C 425.40625 341.917969 425.28125 341.792969 425.210938 341.640625 L 424.0625 339.121094 L 418.285156 339.121094 L 417.140625 341.65625 C 417.066406 341.824219 416.957031 341.917969 416.789062 341.917969 C 416.609375 341.917969 416.453125 341.78125 416.453125 341.613281 C 416.453125 341.554688 416.46875 341.472656 416.507812 341.386719 M 423.757812 338.464844 L 421.183594 332.796875 L 418.59375 338.464844 Z M 423.757812 338.464844 " />
					<path style=" stroke:none;fill-rule:nonzero;fill:rgb(32.548523%,32.548523%,33.332825%);fill-opacity:1;" d="M 427.414062 341.078125 C 427.359375 341.039062 427.289062 340.925781 427.289062 340.8125 C 427.289062 340.632812 427.445312 340.476562 427.625 340.476562 C 427.710938 340.476562 427.792969 340.507812 427.851562 340.546875 C 428.59375 341.078125 429.375 341.359375 430.226562 341.359375 C 431.195312 341.359375 431.949219 340.828125 431.949219 340.003906 L 431.949219 339.976562 C 431.949219 339.136719 431.054688 338.828125 430.058594 338.546875 C 428.898438 338.210938 427.613281 337.863281 427.613281 336.589844 L 427.613281 336.5625 C 427.613281 335.414062 428.578125 334.589844 429.960938 334.589844 C 430.730469 334.589844 431.585938 334.839844 432.269531 335.234375 C 432.355469 335.289062 432.453125 335.386719 432.453125 335.539062 C 432.453125 335.722656 432.296875 335.875 432.117188 335.875 C 432.03125 335.875 431.964844 335.847656 431.921875 335.820312 C 431.304688 335.457031 430.621094 335.234375 429.933594 335.234375 C 428.953125 335.234375 428.3125 335.761719 428.3125 336.476562 L 428.3125 336.503906 C 428.3125 337.300781 429.277344 337.597656 430.300781 337.890625 C 431.445312 338.210938 432.648438 338.632812 432.648438 339.890625 L 432.648438 339.917969 C 432.648438 341.191406 431.558594 342.003906 430.183594 342.003906 C 429.222656 342.003906 428.144531 341.625 427.414062 341.078125 " />
					<path style=" stroke:none;fill-rule:nonzero;fill:rgb(32.548523%,32.548523%,33.332825%);fill-opacity:1;" d="M 434.6875 331.945312 C 434.6875 331.75 434.828125 331.59375 435.023438 331.59375 C 435.21875 331.59375 435.375 331.75 435.375 331.945312 L 435.375 336.058594 C 435.847656 335.21875 436.648438 334.558594 437.949219 334.558594 C 439.75 334.558594 440.800781 335.792969 440.800781 337.5 L 440.800781 341.570312 C 440.800781 341.78125 440.660156 341.917969 440.464844 341.917969 C 440.269531 341.917969 440.117188 341.78125 440.117188 341.570312 L 440.117188 337.625 C 440.117188 336.15625 439.289062 335.191406 437.847656 335.191406 C 436.449219 335.191406 435.375 336.253906 435.375 337.738281 L 435.375 341.570312 C 435.375 341.78125 435.234375 341.917969 435.039062 341.917969 C 434.839844 341.917969 434.6875 341.78125 434.6875 341.570312 Z M 434.6875 331.945312 " />
					<path style=" stroke:none;fill-rule:nonzero;fill:rgb(32.548523%,32.548523%,33.332825%);fill-opacity:1;" d="M 443.117188 335.023438 C 443.117188 334.828125 443.257812 334.671875 443.453125 334.671875 C 443.648438 334.671875 443.804688 334.8125 443.804688 335.023438 L 443.804688 336.757812 C 444.421875 335.371094 445.664062 334.617188 446.671875 334.617188 C 446.882812 334.617188 447.035156 334.785156 447.035156 334.996094 C 447.035156 335.191406 446.894531 335.359375 446.671875 335.371094 C 445.160156 335.511719 443.804688 336.644531 443.804688 338.9375 L 443.804688 341.570312 C 443.804688 341.765625 443.664062 341.917969 443.46875 341.917969 C 443.273438 341.917969 443.117188 341.78125 443.117188 341.570312 Z M 443.117188 335.023438 " />
					<path style=" stroke:none;fill-rule:nonzero;fill:rgb(32.548523%,32.548523%,33.332825%);fill-opacity:1;" d="M 447.636719 339.792969 L 447.636719 339.765625 C 447.636719 338.28125 448.910156 337.441406 450.753906 337.441406 C 451.746094 337.441406 452.433594 337.566406 453.121094 337.75 L 453.121094 337.441406 C 453.121094 336 452.238281 335.261719 450.769531 335.261719 C 449.984375 335.261719 449.328125 335.457031 448.742188 335.734375 C 448.683594 335.761719 448.628906 335.777344 448.585938 335.777344 C 448.417969 335.777344 448.265625 335.625 448.265625 335.457031 C 448.265625 335.289062 448.390625 335.175781 448.460938 335.148438 C 449.1875 334.828125 449.902344 334.617188 450.8125 334.617188 C 451.777344 334.617188 452.546875 334.882812 453.0625 335.402344 C 453.539062 335.875 453.792969 336.535156 453.792969 337.414062 L 453.792969 341.570312 C 453.792969 341.777344 453.652344 341.917969 453.453125 341.917969 C 453.257812 341.917969 453.121094 341.777344 453.121094 341.570312 L 453.121094 340.675781 C 452.628906 341.359375 451.746094 342.03125 450.390625 342.03125 C 449.0625 342.03125 447.636719 341.277344 447.636719 339.792969 M 453.132812 339.191406 L 453.132812 338.378906 C 452.53125 338.226562 451.734375 338.058594 450.714844 338.058594 C 449.199219 338.058594 448.363281 338.730469 448.363281 339.722656 L 448.363281 339.75 C 448.363281 340.785156 449.34375 341.386719 450.433594 341.386719 C 451.886719 341.386719 453.132812 340.492188 453.132812 339.191406 " />
					<path style=" stroke:none;fill-rule:nonzero;fill:rgb(32.548523%,32.548523%,33.332825%);fill-opacity:1;" d="M 456.109375 335.023438 C 456.109375 334.828125 456.25 334.671875 456.445312 334.671875 C 456.640625 334.671875 456.796875 334.8125 456.796875 335.023438 L 456.796875 336 C 457.253906 335.257812 457.898438 334.558594 459.171875 334.558594 C 460.417969 334.558594 461.1875 335.273438 461.578125 336.097656 C 462.039062 335.300781 462.808594 334.558594 464.152344 334.558594 C 465.847656 334.558594 466.894531 335.75 466.894531 337.539062 L 466.894531 341.570312 C 466.894531 341.78125 466.757812 341.917969 466.558594 341.917969 C 466.363281 341.917969 466.210938 341.78125 466.210938 341.570312 L 466.210938 337.625 C 466.210938 336.085938 465.410156 335.191406 464.097656 335.191406 C 462.894531 335.191406 461.84375 336.113281 461.84375 337.707031 L 461.84375 341.570312 C 461.84375 341.78125 461.707031 341.917969 461.507812 341.917969 C 461.3125 341.917969 461.160156 341.78125 461.160156 341.570312 L 461.160156 337.582031 C 461.160156 336.097656 460.347656 335.191406 459.074219 335.191406 C 457.800781 335.191406 456.796875 336.308594 456.796875 337.75 L 456.796875 341.570312 C 456.796875 341.78125 456.65625 341.917969 456.457031 341.917969 C 456.261719 341.917969 456.109375 341.78125 456.109375 341.570312 Z M 456.109375 335.023438 " />
				</g>
				<g id="yoga-retreat" viewBox="300 300 200 200">
					<path style=" stroke:none;fill-rule:nonzero;fill:rgb(32.548523%,32.548523%,33.332825%);fill-opacity:1;" d="M 319.414062 361.339844 L 313.414062 352.878906 C 313.347656 352.769531 313.304688 352.636719 313.304688 352.527344 C 313.304688 352.21875 313.589844 351.957031 313.898438 351.957031 C 314.140625 351.957031 314.292969 352.085938 314.425781 352.285156 L 320.007812 360.308594 L 325.613281 352.285156 C 325.742188 352.109375 325.875 351.957031 326.117188 351.957031 C 326.402344 351.957031 326.6875 352.21875 326.6875 352.507812 C 326.6875 352.660156 326.601562 352.8125 326.511719 352.945312 L 320.558594 361.316406 L 320.558594 366.945312 C 320.558594 367.253906 320.292969 367.515625 319.984375 367.515625 C 319.679688 367.515625 319.414062 367.253906 319.414062 366.945312 Z M 319.414062 361.339844 " />
					<path style=" stroke:none;fill-rule:nonzero;fill:rgb(32.548523%,32.548523%,33.332825%);fill-opacity:1;" d="M 328.6875 359.78125 L 328.6875 359.734375 C 328.6875 355.539062 331.785156 351.78125 336.441406 351.78125 C 341.101562 351.78125 344.15625 355.496094 344.15625 359.691406 L 344.15625 359.734375 C 344.15625 363.933594 341.058594 367.691406 336.398438 367.691406 C 331.742188 367.691406 328.6875 363.976562 328.6875 359.78125 M 342.96875 359.78125 L 342.96875 359.734375 C 342.96875 355.933594 340.199219 352.8125 336.398438 352.8125 C 332.597656 352.8125 329.871094 355.890625 329.871094 359.691406 L 329.871094 359.734375 C 329.871094 363.539062 332.640625 366.660156 336.441406 366.660156 C 340.242188 366.660156 342.96875 363.582031 342.96875 359.78125 " />
					<path style=" stroke:none;fill-rule:nonzero;fill:rgb(32.548523%,32.548523%,33.332825%);fill-opacity:1;" d="M 347.914062 359.78125 L 347.914062 359.734375 C 347.914062 355.582031 350.921875 351.78125 355.515625 351.78125 C 357.824219 351.78125 359.339844 352.417969 360.769531 353.496094 C 360.902344 353.605469 360.988281 353.757812 360.988281 353.957031 C 360.988281 354.261719 360.722656 354.527344 360.417969 354.527344 C 360.328125 354.527344 360.195312 354.484375 360.066406 354.375 C 358.878906 353.449219 357.582031 352.8125 355.449219 352.8125 C 351.714844 352.8125 349.097656 355.976562 349.097656 359.691406 L 349.097656 359.734375 C 349.097656 363.714844 351.582031 366.679688 355.691406 366.679688 C 357.648438 366.679688 359.46875 365.867188 360.59375 364.921875 L 360.59375 360.503906 L 355.800781 360.503906 C 355.515625 360.503906 355.273438 360.261719 355.273438 359.976562 C 355.273438 359.691406 355.515625 359.449219 355.800781 359.449219 L 361.121094 359.449219 C 361.425781 359.449219 361.691406 359.714844 361.691406 360.023438 L 361.691406 365.054688 C 361.691406 365.273438 361.535156 365.515625 361.292969 365.710938 C 359.84375 366.835938 357.933594 367.691406 355.648438 367.691406 C 350.789062 367.691406 347.914062 364.109375 347.914062 359.78125 " />
					<path style=" stroke:none;fill-rule:nonzero;fill:rgb(32.548523%,32.548523%,33.332825%);fill-opacity:1;" d="M 365.402344 366.679688 L 371.972656 352.441406 C 372.125 352.109375 372.347656 351.890625 372.742188 351.890625 L 372.785156 351.890625 C 373.183594 351.890625 373.402344 352.109375 373.554688 352.441406 L 380.105469 366.636719 C 380.171875 366.769531 380.191406 366.878906 380.191406 366.988281 C 380.191406 367.273438 379.953125 367.515625 379.644531 367.515625 C 379.378906 367.515625 379.179688 367.320312 379.070312 367.074219 L 377.269531 363.121094 L 368.191406 363.121094 L 366.390625 367.097656 C 366.28125 367.363281 366.105469 367.515625 365.839844 367.515625 C 365.558594 367.515625 365.316406 367.296875 365.316406 367.03125 C 365.316406 366.945312 365.335938 366.8125 365.402344 366.679688 M 376.785156 362.085938 L 372.742188 353.1875 L 368.675781 362.085938 Z M 376.785156 362.085938 " />
					<path style=" stroke:none;fill-rule:nonzero;fill:rgb(32.548523%,32.548523%,33.332825%);fill-opacity:1;" d="M 391.417969 352.617188 C 391.417969 352.308594 391.683594 352.042969 391.988281 352.042969 L 397.878906 352.042969 C 399.769531 352.042969 401.289062 352.636719 402.210938 353.5625 C 402.933594 354.285156 403.375 355.320312 403.375 356.417969 L 403.375 356.460938 C 403.375 359.03125 401.464844 360.503906 398.867188 360.855469 L 403.242188 366.527344 C 403.351562 366.660156 403.417969 366.789062 403.417969 366.921875 C 403.417969 367.230469 403.132812 367.515625 402.824219 367.515625 C 402.605469 367.515625 402.453125 367.382812 402.320312 367.207031 L 397.59375 361.054688 L 392.5625 361.054688 L 392.5625 366.945312 C 392.5625 367.25 392.296875 367.515625 391.988281 367.515625 C 391.683594 367.515625 391.417969 367.25 391.417969 366.945312 Z M 397.75 360.023438 C 400.320312 360.023438 402.230469 358.726562 402.230469 356.507812 L 402.230469 356.460938 C 402.230469 354.394531 400.605469 353.097656 397.816406 353.097656 L 392.5625 353.097656 L 392.5625 360.023438 Z M 397.75 360.023438 " />
					<path style=" stroke:none;fill-rule:nonzero;fill:rgb(32.548523%,32.548523%,33.332825%);fill-opacity:1;" d="M 407.851562 366.855469 L 407.851562 352.617188 C 407.851562 352.308594 408.117188 352.042969 408.425781 352.042969 L 418.359375 352.042969 C 418.644531 352.042969 418.886719 352.285156 418.886719 352.570312 C 418.886719 352.855469 418.644531 353.101562 418.359375 353.101562 L 408.996094 353.101562 L 408.996094 359.144531 L 417.367188 359.144531 C 417.65625 359.144531 417.898438 359.386719 417.898438 359.671875 C 417.898438 359.957031 417.65625 360.199219 417.367188 360.199219 L 408.996094 360.199219 L 408.996094 366.371094 L 418.46875 366.371094 C 418.753906 366.371094 418.996094 366.613281 418.996094 366.898438 C 418.996094 367.1875 418.753906 367.425781 418.46875 367.425781 L 408.425781 367.425781 C 408.117188 367.425781 407.851562 367.164062 407.851562 366.855469 " />
					<path style=" stroke:none;fill-rule:nonzero;fill:rgb(32.548523%,32.548523%,33.332825%);fill-opacity:1;" d="M 427.386719 353.097656 L 422.464844 353.097656 C 422.179688 353.097656 421.941406 352.859375 421.941406 352.570312 C 421.941406 352.285156 422.179688 352.042969 422.464844 352.042969 L 433.453125 352.042969 C 433.738281 352.042969 433.980469 352.285156 433.980469 352.570312 C 433.980469 352.859375 433.738281 353.097656 433.453125 353.097656 L 428.53125 353.097656 L 428.53125 366.945312 C 428.53125 367.253906 428.269531 367.515625 427.960938 367.515625 C 427.652344 367.515625 427.386719 367.253906 427.386719 366.945312 Z M 427.386719 353.097656 " />
					<path style=" stroke:none;fill-rule:nonzero;fill:rgb(32.548523%,32.548523%,33.332825%);fill-opacity:1;" d="M 437.914062 352.617188 C 437.914062 352.308594 438.179688 352.042969 438.484375 352.042969 L 444.375 352.042969 C 446.265625 352.042969 447.78125 352.636719 448.703125 353.5625 C 449.429688 354.285156 449.867188 355.320312 449.867188 356.417969 L 449.867188 356.460938 C 449.867188 359.03125 447.957031 360.503906 445.363281 360.855469 L 449.738281 366.527344 C 449.847656 366.660156 449.914062 366.789062 449.914062 366.921875 C 449.914062 367.230469 449.628906 367.515625 449.320312 367.515625 C 449.101562 367.515625 448.945312 367.382812 448.816406 367.207031 L 444.089844 361.054688 L 439.058594 361.054688 L 439.058594 366.945312 C 439.058594 367.25 438.792969 367.515625 438.484375 367.515625 C 438.179688 367.515625 437.914062 367.25 437.914062 366.945312 Z M 444.242188 360.023438 C 446.8125 360.023438 448.726562 358.726562 448.726562 356.507812 L 448.726562 356.460938 C 448.726562 354.394531 447.101562 353.097656 444.308594 353.097656 L 439.058594 353.097656 L 439.058594 360.023438 Z M 444.242188 360.023438 " />
					<path style=" stroke:none;fill-rule:nonzero;fill:rgb(32.548523%,32.548523%,33.332825%);fill-opacity:1;" d="M 454.347656 366.855469 L 454.347656 352.617188 C 454.347656 352.308594 454.613281 352.042969 454.921875 352.042969 L 464.855469 352.042969 C 465.140625 352.042969 465.382812 352.285156 465.382812 352.570312 C 465.382812 352.855469 465.140625 353.101562 464.855469 353.101562 L 455.492188 353.101562 L 455.492188 359.144531 L 463.863281 359.144531 C 464.152344 359.144531 464.390625 359.386719 464.390625 359.671875 C 464.390625 359.957031 464.152344 360.199219 463.863281 360.199219 L 455.492188 360.199219 L 455.492188 366.371094 L 464.964844 366.371094 C 465.25 366.371094 465.492188 366.613281 465.492188 366.898438 C 465.492188 367.1875 465.25 367.425781 464.964844 367.425781 L 454.921875 367.425781 C 454.613281 367.425781 454.347656 367.164062 454.347656 366.855469 " />
					<path style=" stroke:none;fill-rule:nonzero;fill:rgb(32.548523%,32.548523%,33.332825%);fill-opacity:1;" d="M 468.652344 366.679688 L 475.222656 352.441406 C 475.378906 352.109375 475.597656 351.890625 475.992188 351.890625 L 476.039062 351.890625 C 476.433594 351.890625 476.652344 352.109375 476.804688 352.441406 L 483.355469 366.636719 C 483.421875 366.769531 483.441406 366.878906 483.441406 366.988281 C 483.441406 367.273438 483.203125 367.515625 482.894531 367.515625 C 482.632812 367.515625 482.433594 367.320312 482.324219 367.074219 L 480.519531 363.121094 L 471.445312 363.121094 L 469.644531 367.097656 C 469.53125 367.363281 469.355469 367.515625 469.09375 367.515625 C 468.808594 367.515625 468.566406 367.296875 468.566406 367.03125 C 468.566406 366.945312 468.589844 366.8125 468.652344 366.679688 M 480.039062 362.085938 L 475.992188 353.1875 L 471.925781 362.085938 Z M 480.039062 362.085938 " />
					<path style=" stroke:none;fill-rule:nonzero;fill:rgb(32.548523%,32.548523%,33.332825%);fill-opacity:1;" d="M 489.8125 353.097656 L 484.890625 353.097656 C 484.605469 353.097656 484.367188 352.859375 484.367188 352.570312 C 484.367188 352.285156 484.605469 352.042969 484.890625 352.042969 L 495.878906 352.042969 C 496.164062 352.042969 496.40625 352.285156 496.40625 352.570312 C 496.40625 352.859375 496.164062 353.097656 495.878906 353.097656 L 490.957031 353.097656 L 490.957031 366.945312 C 490.957031 367.253906 490.695312 367.515625 490.386719 367.515625 C 490.078125 367.515625 489.8125 367.253906 489.8125 366.945312 Z M 489.8125 353.097656 " />
				</g>
				<g id="arcs" viewBox="375 260 60 60">
					<path style="stroke:none;fill-rule:nonzero;fill:rgb(100%,81.568909%,0%);fill-opacity:1;" d="M 423.378906 287.289062 C 423.59375 290.886719 422.589844 294.566406 420.660156 297.695312 C 418.710938 300.816406 415.785156 303.359375 412.355469 304.84375 C 408.933594 306.355469 405.046875 306.753906 401.347656 306.066406 C 397.648438 305.375 394.183594 303.515625 391.511719 300.859375 C 388.855469 298.191406 387 294.722656 386.300781 291.023438 C 385.617188 287.332031 386.015625 283.4375 387.53125 280.019531 C 389.011719 276.589844 391.554688 273.664062 394.675781 271.710938 C 397.804688 269.78125 401.484375 268.78125 405.085938 268.992188 C 401.496094 269.1875 398 270.359375 395.164062 272.441406 C 392.304688 274.476562 390.089844 277.339844 388.824219 280.554688 C 387.574219 283.773438 387.253906 287.339844 387.972656 290.695312 C 388.65625 294.050781 390.351562 297.1875 392.78125 299.589844 C 395.1875 302.023438 398.324219 303.714844 401.679688 304.402344 C 405.03125 305.117188 408.605469 304.800781 411.820312 303.550781 C 415.035156 302.289062 417.898438 300.074219 419.929688 297.210938 C 422.015625 294.375 423.1875 290.878906 423.378906 287.289062 " />
					<path style=" stroke:none;fill-rule:nonzero;fill:rgb(95.294189%,58.039856%,0%);fill-opacity:1;" d="M 433.558594 287.96875 C 433.816406 291.703125 433.195312 295.503906 431.914062 299.082031 C 430.582031 302.648438 428.515625 305.964844 425.851562 308.738281 C 423.207031 311.535156 419.949219 313.753906 416.398438 315.289062 C 412.832031 316.8125 408.972656 317.578125 405.070312 317.597656 C 401.222656 317.582031 397.324219 316.808594 393.765625 315.292969 C 390.21875 313.753906 386.957031 311.539062 384.3125 308.742188 C 381.648438 305.964844 379.582031 302.648438 378.25 299.082031 C 376.96875 295.503906 376.351562 291.703125 376.609375 287.96875 C 377.027344 295.4375 380.351562 302.488281 385.582031 307.472656 C 390.804688 312.476562 397.898438 315.355469 405.097656 315.300781 C 412.242188 315.359375 419.375 312.480469 424.589844 307.476562 C 429.820312 302.488281 433.140625 295.4375 433.558594 287.96875 " />
					<path style=" stroke:none;fill-rule:nonzero;fill:rgb(74.118042%,82.745361%,69.020081%);fill-opacity:1;" d="M 408.691406 299.339844 C 405.429688 300.285156 401.8125 299.90625 398.789062 298.3125 C 395.738281 296.75 393.355469 293.910156 392.347656 290.5625 C 391.332031 287.257812 391.699219 283.507812 393.375 280.433594 C 395.023438 277.335938 397.933594 274.941406 401.347656 273.933594 C 404.695312 272.898438 408.515625 273.261719 411.652344 274.957031 C 413.214844 275.808594 414.621094 276.960938 415.742188 278.355469 C 416.855469 279.761719 417.671875 281.359375 418.171875 283.109375 C 418.628906 284.789062 418.761719 286.632812 418.5 288.371094 C 418.242188 290.121094 417.621094 291.800781 416.71875 293.289062 C 414.917969 296.28125 411.957031 298.429688 408.691406 299.339844 M 408.652344 299.199219 C 410.261719 298.710938 411.765625 297.902344 413.03125 296.816406 C 414.292969 295.726562 415.316406 294.386719 416.046875 292.917969 C 417.507812 289.960938 417.722656 286.554688 416.78125 283.472656 C 415.882812 280.445312 413.746094 277.765625 410.964844 276.203125 C 408.183594 274.613281 404.785156 274.167969 401.640625 275.046875 C 398.546875 275.890625 395.78125 278.039062 394.191406 280.882812 C 392.578125 283.71875 392.140625 287.195312 393.042969 290.378906 C 393.882812 293.539062 396.042969 296.375 398.933594 298.046875 C 400.382812 298.875 402 299.429688 403.667969 299.632812 C 405.335938 299.816406 407.039062 299.667969 408.652344 299.199219 " />
					<path style=" stroke:none;fill-rule:nonzero;fill:rgb(57.647705%,82.745361%,89.019775%);fill-opacity:1;" d="M 416.390625 293.101562 C 415.023438 296.207031 412.210938 298.75 408.835938 299.804688 C 405.480469 300.917969 401.644531 300.535156 398.519531 298.808594 C 396.96875 297.941406 395.574219 296.769531 394.484375 295.367188 C 393.40625 293.953125 392.585938 292.339844 392.160156 290.628906 C 391.714844 288.921875 391.640625 287.132812 391.917969 285.417969 C 392.222656 283.710938 392.832031 282.0625 393.789062 280.660156 C 392.394531 283.753906 392.238281 287.242188 393.238281 290.316406 C 394.238281 293.390625 396.402344 296.03125 399.214844 297.550781 C 402.003906 299.113281 405.390625 299.53125 408.527344 298.730469 C 411.660156 297.933594 414.523438 295.933594 416.390625 293.101562 " />
				</g>
			</symbol>
			<symbol id="symbol" viewBox="375 260 65 65">
				<path style="stroke:none;fill-rule:nonzero;fill:rgb(100%,81.568909%,0%);fill-opacity:1;" d="M 423.378906 287.289062 C 423.59375 290.886719 422.589844 294.566406 420.660156 297.695312 C 418.710938 300.816406 415.785156 303.359375 412.355469 304.84375 C 408.933594 306.355469 405.046875 306.753906 401.347656 306.066406 C 397.648438 305.375 394.183594 303.515625 391.511719 300.859375 C 388.855469 298.191406 387 294.722656 386.300781 291.023438 C 385.617188 287.332031 386.015625 283.4375 387.53125 280.019531 C 389.011719 276.589844 391.554688 273.664062 394.675781 271.710938 C 397.804688 269.78125 401.484375 268.78125 405.085938 268.992188 C 401.496094 269.1875 398 270.359375 395.164062 272.441406 C 392.304688 274.476562 390.089844 277.339844 388.824219 280.554688 C 387.574219 283.773438 387.253906 287.339844 387.972656 290.695312 C 388.65625 294.050781 390.351562 297.1875 392.78125 299.589844 C 395.1875 302.023438 398.324219 303.714844 401.679688 304.402344 C 405.03125 305.117188 408.605469 304.800781 411.820312 303.550781 C 415.035156 302.289062 417.898438 300.074219 419.929688 297.210938 C 422.015625 294.375 423.1875 290.878906 423.378906 287.289062 " />
				<path style=" stroke:none;fill-rule:nonzero;fill:rgb(95.294189%,58.039856%,0%);fill-opacity:1;" d="M 433.558594 287.96875 C 433.816406 291.703125 433.195312 295.503906 431.914062 299.082031 C 430.582031 302.648438 428.515625 305.964844 425.851562 308.738281 C 423.207031 311.535156 419.949219 313.753906 416.398438 315.289062 C 412.832031 316.8125 408.972656 317.578125 405.070312 317.597656 C 401.222656 317.582031 397.324219 316.808594 393.765625 315.292969 C 390.21875 313.753906 386.957031 311.539062 384.3125 308.742188 C 381.648438 305.964844 379.582031 302.648438 378.25 299.082031 C 376.96875 295.503906 376.351562 291.703125 376.609375 287.96875 C 377.027344 295.4375 380.351562 302.488281 385.582031 307.472656 C 390.804688 312.476562 397.898438 315.355469 405.097656 315.300781 C 412.242188 315.359375 419.375 312.480469 424.589844 307.476562 C 429.820312 302.488281 433.140625 295.4375 433.558594 287.96875 " />
				<path style=" stroke:none;fill-rule:nonzero;fill:rgb(74.118042%,82.745361%,69.020081%);fill-opacity:1;" d="M 408.691406 299.339844 C 405.429688 300.285156 401.8125 299.90625 398.789062 298.3125 C 395.738281 296.75 393.355469 293.910156 392.347656 290.5625 C 391.332031 287.257812 391.699219 283.507812 393.375 280.433594 C 395.023438 277.335938 397.933594 274.941406 401.347656 273.933594 C 404.695312 272.898438 408.515625 273.261719 411.652344 274.957031 C 413.214844 275.808594 414.621094 276.960938 415.742188 278.355469 C 416.855469 279.761719 417.671875 281.359375 418.171875 283.109375 C 418.628906 284.789062 418.761719 286.632812 418.5 288.371094 C 418.242188 290.121094 417.621094 291.800781 416.71875 293.289062 C 414.917969 296.28125 411.957031 298.429688 408.691406 299.339844 M 408.652344 299.199219 C 410.261719 298.710938 411.765625 297.902344 413.03125 296.816406 C 414.292969 295.726562 415.316406 294.386719 416.046875 292.917969 C 417.507812 289.960938 417.722656 286.554688 416.78125 283.472656 C 415.882812 280.445312 413.746094 277.765625 410.964844 276.203125 C 408.183594 274.613281 404.785156 274.167969 401.640625 275.046875 C 398.546875 275.890625 395.78125 278.039062 394.191406 280.882812 C 392.578125 283.71875 392.140625 287.195312 393.042969 290.378906 C 393.882812 293.539062 396.042969 296.375 398.933594 298.046875 C 400.382812 298.875 402 299.429688 403.667969 299.632812 C 405.335938 299.816406 407.039062 299.667969 408.652344 299.199219 " />
				<path style=" stroke:none;fill-rule:nonzero;fill:rgb(57.647705%,82.745361%,89.019775%);fill-opacity:1;" d="M 416.390625 293.101562 C 415.023438 296.207031 412.210938 298.75 408.835938 299.804688 C 405.480469 300.917969 401.644531 300.535156 398.519531 298.808594 C 396.96875 297.941406 395.574219 296.769531 394.484375 295.367188 C 393.40625 293.953125 392.585938 292.339844 392.160156 290.628906 C 391.714844 288.921875 391.640625 287.132812 391.917969 285.417969 C 392.222656 283.710938 392.832031 282.0625 393.789062 280.660156 C 392.394531 283.753906 392.238281 287.242188 393.238281 290.316406 C 394.238281 293.390625 396.402344 296.03125 399.214844 297.550781 C 402.003906 299.113281 405.390625 299.53125 408.527344 298.730469 C 411.660156 297.933594 414.523438 295.933594 416.390625 293.101562 " />
			</symbol>
		</symbol>
	</defs>
</svg>
