<?xml version="1.0" encoding="UTF-8"?>
<svg xmlns="http://www.w3.org/2000/svg" version="1.2" viewBox="372.6 260 65 65">
	<path style="stroke:none;fill-rule:nonzero;fill:rgb(100%,81.568909%,0%);fill-opacity:1;" d="M 423.378906 287.289062 C 423.59375 290.886719 422.589844 294.566406 420.660156 297.695312 C 418.710938 300.816406 415.785156 303.359375 412.355469 304.84375 C 408.933594 306.355469 405.046875 306.753906 401.347656 306.066406 C 397.648438 305.375 394.183594 303.515625 391.511719 300.859375 C 388.855469 298.191406 387 294.722656 386.300781 291.023438 C 385.617188 287.332031 386.015625 283.4375 387.53125 280.019531 C 389.011719 276.589844 391.554688 273.664062 394.675781 271.710938 C 397.804688 269.78125 401.484375 268.78125 405.085938 268.992188 C 401.496094 269.1875 398 270.359375 395.164062 272.441406 C 392.304688 274.476562 390.089844 277.339844 388.824219 280.554688 C 387.574219 283.773438 387.253906 287.339844 387.972656 290.695312 C 388.65625 294.050781 390.351562 297.1875 392.78125 299.589844 C 395.1875 302.023438 398.324219 303.714844 401.679688 304.402344 C 405.03125 305.117188 408.605469 304.800781 411.820312 303.550781 C 415.035156 302.289062 417.898438 300.074219 419.929688 297.210938 C 422.015625 294.375 423.1875 290.878906 423.378906 287.289062 " />
	<path style=" stroke:none;fill-rule:nonzero;fill:rgb(95.294189%,58.039856%,0%);fill-opacity:1;" d="M 433.558594 287.96875 C 433.816406 291.703125 433.195312 295.503906 431.914062 299.082031 C 430.582031 302.648438 428.515625 305.964844 425.851562 308.738281 C 423.207031 311.535156 419.949219 313.753906 416.398438 315.289062 C 412.832031 316.8125 408.972656 317.578125 405.070312 317.597656 C 401.222656 317.582031 397.324219 316.808594 393.765625 315.292969 C 390.21875 313.753906 386.957031 311.539062 384.3125 308.742188 C 381.648438 305.964844 379.582031 302.648438 378.25 299.082031 C 376.96875 295.503906 376.351562 291.703125 376.609375 287.96875 C 377.027344 295.4375 380.351562 302.488281 385.582031 307.472656 C 390.804688 312.476562 397.898438 315.355469 405.097656 315.300781 C 412.242188 315.359375 419.375 312.480469 424.589844 307.476562 C 429.820312 302.488281 433.140625 295.4375 433.558594 287.96875 " />
	<path style=" stroke:none;fill-rule:nonzero;fill:rgb(74.118042%,82.745361%,69.020081%);fill-opacity:1;" d="M 408.691406 299.339844 C 405.429688 300.285156 401.8125 299.90625 398.789062 298.3125 C 395.738281 296.75 393.355469 293.910156 392.347656 290.5625 C 391.332031 287.257812 391.699219 283.507812 393.375 280.433594 C 395.023438 277.335938 397.933594 274.941406 401.347656 273.933594 C 404.695312 272.898438 408.515625 273.261719 411.652344 274.957031 C 413.214844 275.808594 414.621094 276.960938 415.742188 278.355469 C 416.855469 279.761719 417.671875 281.359375 418.171875 283.109375 C 418.628906 284.789062 418.761719 286.632812 418.5 288.371094 C 418.242188 290.121094 417.621094 291.800781 416.71875 293.289062 C 414.917969 296.28125 411.957031 298.429688 408.691406 299.339844 M 408.652344 299.199219 C 410.261719 298.710938 411.765625 297.902344 413.03125 296.816406 C 414.292969 295.726562 415.316406 294.386719 416.046875 292.917969 C 417.507812 289.960938 417.722656 286.554688 416.78125 283.472656 C 415.882812 280.445312 413.746094 277.765625 410.964844 276.203125 C 408.183594 274.613281 404.785156 274.167969 401.640625 275.046875 C 398.546875 275.890625 395.78125 278.039062 394.191406 280.882812 C 392.578125 283.71875 392.140625 287.195312 393.042969 290.378906 C 393.882812 293.539062 396.042969 296.375 398.933594 298.046875 C 400.382812 298.875 402 299.429688 403.667969 299.632812 C 405.335938 299.816406 407.039062 299.667969 408.652344 299.199219 " />
	<path style=" stroke:none;fill-rule:nonzero;fill:rgb(57.647705%,82.745361%,89.019775%);fill-opacity:1;" d="M 416.390625 293.101562 C 415.023438 296.207031 412.210938 298.75 408.835938 299.804688 C 405.480469 300.917969 401.644531 300.535156 398.519531 298.808594 C 396.96875 297.941406 395.574219 296.769531 394.484375 295.367188 C 393.40625 293.953125 392.585938 292.339844 392.160156 290.628906 C 391.714844 288.921875 391.640625 287.132812 391.917969 285.417969 C 392.222656 283.710938 392.832031 282.0625 393.789062 280.660156 C 392.394531 283.753906 392.238281 287.242188 393.238281 290.316406 C 394.238281 293.390625 396.402344 296.03125 399.214844 297.550781 C 402.003906 299.113281 405.390625 299.53125 408.527344 298.730469 C 411.660156 297.933594 414.523438 295.933594 416.390625 293.101562 " />
</svg>
